<?xml version="1.0" encoding="UTF-8" standalone="no"?>
<svg
   xmlns:dc="http://purl.org/dc/elements/1.1/"
   xmlns:cc="http://creativecommons.org/ns#"
   xmlns:rdf="http://www.w3.org/1999/02/22-rdf-syntax-ns#"
   xmlns:svg="http://www.w3.org/2000/svg"
   xmlns="http://www.w3.org/2000/svg"
   xmlns:sodipodi="http://sodipodi.sourceforge.net/DTD/sodipodi-0.dtd"
   xmlns:inkscape="http://www.inkscape.org/namespaces/inkscape"
   version="1.0"
   width="635.000000pt"
   height="709.000000pt"
   viewBox="0 0 635.000000 709.000000"
   preserveAspectRatio="xMidYMid meet"
   id="svg3336"
   inkscape:version="0.91 r13725"
   sodipodi:docname="wolf2.svg">
  <defs
     id="defs3360">
    <filter
       style="color-interpolation-filters:sRGB;"
       inkscape:label="Channel Painting"
       id="filter3398">
      <feColorMatrix
         values="1"
         type="saturate"
         result="colormatrix1"
         id="feColorMatrix3400" />
      <feColorMatrix
         values="1 0 0 0 0 0 1 0 0 0 0 0 1 0 0 -1 0.5 0.5 1 0 "
         in="SourceGraphic"
         result="colormatrix2"
         id="feColorMatrix3402" />
      <feFlood
         flood-color="rgb(126,126,132)"
         flood-opacity="1"
         result="flood"
         id="feFlood3404" />
      <feComposite
         in2="colormatrix2"
         operator="in"
         result="composite1"
         id="feComposite3406" />
      <feMerge
         result="merge"
         id="feMerge3408">
        <feMergeNode
           in="colormatrix1"
           id="feMergeNode3410" />
        <feMergeNode
           in="composite1"
           id="feMergeNode3412" />
      </feMerge>
      <feComposite
         in="merge"
         in2="SourceGraphic"
         operator="in"
         result="fbSourceGraphic"
         id="feComposite3414" />
      <feColorMatrix
         result="fbSourceGraphicAlpha"
         in="fbSourceGraphic"
         values="0 0 0 -1 0 0 0 0 -1 0 0 0 0 -1 0 0 0 0 1 0"
         id="feColorMatrix3416" />
      <feColorMatrix
         id="feColorMatrix3418"
         values="1"
         type="saturate"
         result="colormatrix1"
         in="fbSourceGraphic" />
      <feColorMatrix
         id="feColorMatrix3420"
         values="1 0 0 0 0 0 1 0 0 0 0 0 1 0 0 -1 0.5 0.5 1 0 "
         in="fbSourceGraphic"
         result="colormatrix2" />
      <feFlood
         id="feFlood3422"
         flood-color="rgb(126,126,132)"
         flood-opacity="1"
         result="flood" />
      <feComposite
         id="feComposite3424"
         in2="colormatrix2"
         operator="in"
         result="composite1" />
      <feMerge
         id="feMerge3426"
         result="merge">
        <feMergeNode
           id="feMergeNode3428"
           in="colormatrix1" />
        <feMergeNode
           id="feMergeNode3430"
           in="composite1" />
      </feMerge>
      <feComposite
         id="feComposite3432"
         in2="fbSourceGraphic"
         in="merge"
         operator="in"
         result="composite2" />
    </filter>
  </defs>
  <sodipodi:namedview
     pagecolor="#ffffff"
     bordercolor="#666666"
     borderopacity="1"
     objecttolerance="10"
     gridtolerance="10"
     guidetolerance="10"
     inkscape:pageopacity="0"
     inkscape:pageshadow="2"
     inkscape:window-width="1920"
     inkscape:window-height="1027"
     id="namedview3358"
     showgrid="false"
     inkscape:zoom="0.96135402"
     inkscape:cx="396.875"
     inkscape:cy="443.125"
     inkscape:window-x="-8"
     inkscape:window-y="-8"
     inkscape:window-maximized="1"
     inkscape:current-layer="svg3336" />
  <metadata
     id="metadata3338">
Created by potrace 1.13, written by Peter Selinger 2001-2015
<rdf:RDF>
  <cc:Work
     rdf:about="">
    <dc:format>image/svg+xml</dc:format>
    <dc:type
       rdf:resource="http://purl.org/dc/dcmitype/StillImage" />
    <dc:title></dc:title>
  </cc:Work>
</rdf:RDF>
</metadata>
  <g
     transform="translate(0.000000,709.000000) scale(0.100000,-0.100000)"
     fill="#000000"
     stroke="none"
     id="g3340"
     style="filter:url(#filter3398)">
    <path
       d="M1412 6367 c-29 -35 -102 -253 -102 -304 0 -33 -17 -37 -33 -6 -14 27 -15 26 -30 -43 -22 -94 -40 -280 -32 -326 7 -41 -6 -51 -25 -20 -17 26 -5 -168 15 -242 17 -63 14 -76 -10 -56 -20 16 -19 15 11 -82 40 -127 83 -227 125 -290 22 -32 39 -60 39 -64 0 -3 -15 -24 -34 -47 -71 -89 -73 -116 -6 -82 28 14 50 23 50 20 0 -3 -21 -33 -46 -68 -47 -64 -119 -202 -130 -248 l-6 -27 79 19 c43 10 91 19 107 19 l30 0 -27 -27 c-36 -38 -55 -88 -73 -191 -8 -48 -24 -115 -35 -150 -12 -35 -19 -66 -16 -68 9 -9 82 34 115 67 18 18 32 28 32 21 0 -17 -51 -174 -66 -204 -17 -33 -5 -37 36 -13 38 22 42 18 25 -21 -20 -49 -19 -54 12 -54 l27 0 -26 -27 c-81 -88 -215 -319 -273 -474 -57 -150 -116 -261 -163 -307 l-46 -44 29 -25 c17 -14 44 -37 60 -52 73 -65 276 -231 295 -241 14 -8 19 -17 15 -30 -5 -16 0 -19 32 -22 l37 -3 -53 -43 -54 -42 74 -34 c41 -19 87 -38 102 -41 21 -6 26 -12 22 -24 -4 -9 -15 -39 -25 -68 l-18 -52 76 -6 77 -7 0 -152 c0 -106 4 -161 14 -183 7 -18 16 -33 20 -33 3 0 19 23 36 50 30 51 53 61 47 22 -7 -48 61 -238 105 -291 l19 -24 13 57 c7 31 16 56 20 56 4 0 15 -24 26 -53 27 -76 65 -159 86 -185 l18 -24 6 24 c3 12 9 41 14 63 l8 40 13 -30 c6 -16 16 -41 21 -54 l9 -24 28 36 c15 20 29 36 32 37 3 0 33 -56 68 -125 66 -133 181 -331 262 -449 30 -45 52 -88 56 -114 8 -50 17 -46 66 30 l32 49 25 -63 c33 -86 88 -162 151 -209 63 -47 80 -49 80 -10 0 16 3 43 6 60 6 31 7 30 71 -63 37 -56 101 -130 155 -181 l91 -87 51 54 c87 90 170 192 201 246 17 28 33 52 37 52 4 0 10 -25 13 -55 4 -30 11 -55 16 -55 21 0 88 51 128 97 45 50 80 111 101 177 l12 39 28 -44 c15 -24 36 -52 47 -62 20 -17 20 -17 26 23 4 28 31 80 88 168 123 191 156 248 246 429 25 51 48 93 52 93 3 0 17 -17 31 -37 l25 -36 19 46 c11 26 23 47 27 47 4 0 10 -22 14 -50 4 -27 11 -50 16 -50 14 0 66 97 95 178 15 40 30 70 33 67 3 -4 13 -30 22 -58 l15 -52 32 55 c41 70 71 149 85 223 6 31 14 57 18 57 4 0 20 -20 36 -45 15 -25 31 -45 35 -45 4 0 15 26 24 57 14 47 16 82 11 184 l-6 126 71 7 c40 4 74 9 77 12 3 3 -3 26 -12 52 -30 78 -31 82 -13 82 8 0 54 18 102 40 l86 40 -53 42 -54 43 38 3 c39 3 45 10 25 30 -8 8 -8 12 -1 12 16 0 297 227 391 317 11 10 6 18 -23 44 -45 40 -95 130 -155 279 -83 205 -162 350 -262 478 -47 60 -48 62 -23 62 29 0 29 0 10 47 -8 20 -13 38 -11 40 2 2 21 -5 42 -16 21 -11 40 -19 42 -17 2 2 -5 21 -16 43 -11 21 -31 75 -45 121 l-26 83 37 -32 c31 -27 112 -72 119 -65 1 1 -7 31 -18 66 -11 35 -27 105 -35 155 -17 102 -44 166 -81 195 l-26 20 29 0 c16 0 66 -9 112 -19 45 -10 82 -17 82 -15 0 1 -10 28 -22 61 -24 63 -72 151 -125 226 -37 52 -32 57 27 27 22 -11 40 -17 40 -13 0 15 -58 108 -78 126 -20 19 -20 19 19 75 22 31 37 62 34 70 -2 7 -1 11 4 8 12 -8 69 135 105 262 15 51 11 63 -12 40 -15 -15 -15 -7 3 67 8 33 18 103 21 155 l7 95 -22 -19 -21 -19 0 105 c0 96 -21 264 -40 313 -7 19 -8 18 -20 -7 -16 -33 -30 -36 -30 -7 0 41 -42 185 -75 256 -31 66 -48 86 -57 66 -1 -5 -23 -26 -48 -47 -25 -22 -132 -123 -239 -225 -176 -170 -226 -214 -207 -182 4 6 2 37 -4 68 l-12 56 -31 -56 c-25 -48 -165 -229 -202 -262 -71 -63 -224 -267 -251 -334 -11 -28 -20 -39 -28 -32 -15 12 -108 31 -151 31 -19 0 -36 4 -39 9 -3 4 5 30 18 57 13 27 23 50 21 52 -2 2 -227 -68 -274 -86 -11 -4 -12 1 -7 21 3 15 4 44 0 65 l-6 39 -41 -44 c-51 -55 -104 -87 -184 -109 -54 -15 -70 -15 -123 -4 -74 16 -164 69 -207 121 l-32 40 -7 -36 c-3 -20 -4 -50 0 -66 5 -24 3 -30 -8 -26 -48 19 -270 87 -273 84 -1 -2 8 -26 22 -52 13 -27 22 -51 20 -53 -2 -3 -39 -10 -82 -17 -43 -7 -89 -16 -103 -19 -22 -5 -28 0 -52 52 -27 56 -85 139 -143 204 -169 188 -264 306 -299 371 l-25 48 -10 -38 c-5 -21 -11 -50 -13 -65 -3 -27 -9 -23 -114 80 -168 163 -361 343 -380 355 -7 4 -16 1 -22 -6z m89 -511 c123 -45 238 -93 266 -111 31 -20 432 -562 421 -569 -2 -1 -46 -17 -98 -35 -52 -19 -127 -50 -167 -71 -77 -39 -83 -38 -83 19 0 14 -6 51 -14 81 -8 30 -13 57 -10 59 2 2 21 -3 41 -11 l38 -15 -62 126 c-34 69 -80 170 -101 224 l-40 98 -18 -51 c-10 -28 -21 -49 -26 -48 -4 2 -37 44 -73 93 -41 56 -64 80 -61 65 3 -14 12 -65 20 -115 9 -49 18 -106 22 -125 l7 -35 -47 45 -47 45 21 -55 c51 -129 80 -213 80 -232 0 -18 -4 -20 -32 -14 l-32 6 32 -33 c37 -38 40 -47 12 -40 -31 8 -24 -3 24 -37 40 -29 44 -37 60 -106 20 -92 20 -91 -1 -97 -10 -2 -41 -14 -70 -25 l-52 -21 -27 82 c-91 285 -106 343 -111 442 -5 95 13 470 23 487 7 11 -1 12 105 -26z m3493 18 c3 -9 11 -125 18 -258 13 -276 15 -264 -74 -551 -28 -88 -52 -168 -55 -177 -5 -16 -11 -15 -71 8 -36 13 -68 27 -71 29 -2 3 4 41 14 86 17 75 21 82 62 111 50 36 53 42 17 35 -25 -4 -24 -3 12 34 l38 39 -32 -6 c-29 -6 -32 -4 -32 19 0 21 43 143 98 276 3 8 -14 -7 -38 -33 -24 -25 -45 -45 -47 -42 -2 2 6 59 17 126 11 67 19 127 17 133 -2 6 -30 -26 -63 -71 -32 -45 -62 -81 -66 -82 -3 0 -14 23 -23 51 -9 28 -18 49 -20 47 -2 -2 -19 -43 -38 -93 -19 -49 -64 -150 -101 -223 l-66 -132 36 15 c20 8 40 15 44 15 4 0 1 -24 -6 -52 -7 -29 -15 -74 -19 -99 l-6 -46 -72 38 c-40 20 -115 52 -167 70 -52 18 -97 34 -99 35 -1 1 3 11 11 22 13 19 15 19 113 -8 55 -16 101 -27 103 -25 2 2 -13 26 -33 54 -36 49 -38 71 -9 71 19 0 18 2 -11 60 -27 53 -22 66 20 50 43 -16 48 -12 25 24 l-21 35 65 90 c117 162 138 186 175 205 41 23 320 134 337 135 7 1 15 -6 18 -15z m-2321 -1706 c59 -69 148 -187 192 -257 23 -38 26 -50 21 -93 -6 -40 -29 -126 -53 -197 -3 -9 20 9 52 39 l57 55 -7 -125 c-4 -69 -10 -154 -14 -190 l-6 -65 -107 143 c-59 79 -111 149 -115 157 -5 7 -89 39 -188 70 -99 31 -206 65 -237 75 -58 19 -197 115 -198 136 0 19 94 74 161 95 34 11 90 19 127 19 l65 0 -23 25 c-24 26 -131 65 -176 65 -13 0 -24 5 -24 10 0 31 238 91 387 98 27 2 39 -7 86 -60z m1327 32 c47 -10 107 -26 134 -36 54 -21 72 -44 34 -44 -60 0 -198 -56 -198 -81 0 -3 37 -9 83 -11 45 -3 102 -14 127 -24 56 -22 140 -75 140 -89 0 -5 -34 -35 -75 -65 -69 -51 -92 -61 -307 -131 l-233 -75 -50 -66 c-27 -36 -79 -105 -115 -154 l-65 -89 -6 50 c-4 28 -10 113 -14 190 l-6 140 38 -41 c70 -75 74 -74 47 11 -13 41 -27 100 -30 130 -6 52 -5 58 31 113 53 79 151 208 199 260 l40 44 70 -7 c39 -4 109 -15 156 -25z m-779 -648 c18 -311 20 -397 11 -413 -10 -16 -10 -19 3 -19 19 0 19 -19 0 -26 -21 -9 -8 -24 21 -24 33 0 30 -13 -8 -32 l-33 -15 43 -8 c50 -8 54 -19 10 -32 l-33 -9 40 -21 c105 -53 140 -85 64 -58 -23 8 -59 15 -80 15 -37 0 -39 -2 -39 -30 0 -29 1 -30 49 -30 70 0 168 -33 234 -79 l57 -40 0 36 c0 34 -43 263 -56 297 -13 33 15 14 56 -39 24 -31 44 -54 46 -52 2 2 -15 56 -36 121 l-40 117 37 67 c61 111 70 122 107 122 59 0 186 39 245 75 71 42 143 118 171 178 17 35 30 49 61 61 50 20 106 20 143 1 26 -14 30 -14 42 2 7 10 14 23 14 29 0 6 7 18 16 25 29 24 7 -96 -31 -176 -46 -96 -162 -211 -269 -267 l-29 -15 36 -7 c35 -6 190 8 223 21 19 7 -57 -140 -101 -194 -26 -33 -162 -106 -254 -136 -48 -16 -49 -16 47 -37 29 -7 52 -14 50 -15 -2 -2 -70 -11 -153 -21 -82 -9 -152 -18 -153 -20 -2 -1 15 -34 38 -72 67 -114 80 -160 90 -316 5 -78 10 -148 10 -155 0 -8 12 9 26 37 31 62 103 144 167 189 l45 33 -5 -64 c-3 -35 -2 -81 1 -101 l7 -36 28 38 c35 48 124 129 170 154 l36 19 -40 -5 -40 -6 35 28 c54 43 201 177 238 216 l34 35 -44 -9 c-24 -4 -61 -8 -83 -8 l-40 0 40 21 c56 29 245 189 245 208 0 3 -32 -4 -72 -18 -39 -13 -109 -32 -155 -42 l-83 -18 46 44 c52 51 90 127 106 213 10 53 14 60 40 65 37 7 125 -10 157 -31 122 -79 148 -330 55 -516 -30 -58 -81 -127 -95 -127 -5 0 -9 21 -9 48 l-1 47 -16 -29 c-8 -16 -40 -103 -69 -193 -30 -90 -62 -178 -71 -196 l-17 -32 -6 35 -6 35 -29 -64 c-31 -69 -42 -66 -45 14 -1 22 -4 31 -6 20 -33 -159 -96 -283 -198 -393 -39 -42 -48 -41 -25 6 10 20 22 60 25 87 l7 50 -30 -27 c-37 -35 -41 -35 -35 2 2 17 2 30 -1 30 -3 0 -19 -28 -37 -62 -43 -84 -158 -243 -211 -293 -28 -27 -40 -33 -35 -20 14 37 19 132 11 211 l-8 79 -13 -57 c-16 -67 -39 -115 -102 -213 -49 -77 -212 -279 -218 -272 -3 2 -1 30 4 60 l9 56 -28 -20 c-41 -29 -118 -117 -142 -163 l-21 -41 -16 112 c-8 61 -18 115 -22 118 -11 11 -46 -53 -64 -115 -9 -30 -19 -62 -21 -70 -3 -8 -14 12 -26 44 l-20 60 -25 -55 -24 -54 -13 48 c-16 57 -56 140 -71 144 -6 2 -16 -41 -25 -113 l-14 -116 -44 66 c-39 60 -138 162 -148 153 -2 -2 2 -28 8 -56 6 -29 9 -55 6 -57 -3 -3 -47 45 -99 108 -126 153 -201 277 -223 373 l-12 50 -8 -57 c-8 -64 -2 -193 10 -222 14 -32 -9 -15 -65 49 -63 73 -137 181 -190 277 l-39 72 6 -45 c6 -42 5 -43 -13 -28 -44 37 -48 35 -41 -16 4 -27 16 -63 27 -82 52 -88 -53 17 -121 121 -40 60 -72 136 -93 221 l-13 49 -8 -49 -8 -50 -39 80 -40 80 7 -55 c12 -94 -11 -47 -89 179 -40 117 -77 216 -82 221 -5 5 -8 -12 -6 -40 5 -60 -6 -63 -46 -14 -121 147 -150 419 -60 554 30 44 72 68 140 80 69 13 108 1 108 -32 0 -68 64 -202 117 -249 26 -22 29 -29 16 -29 -29 0 -176 37 -234 59 -29 11 -54 19 -56 17 -6 -6 159 -156 203 -184 86 -56 86 -53 2 -46 l-78 6 73 -69 c108 -104 117 -112 182 -161 l60 -45 -44 7 -43 7 63 -44 c35 -24 87 -71 115 -104 l52 -61 6 30 c9 46 7 113 -4 142 -5 14 -6 26 -2 26 4 0 33 -20 64 -45 71 -56 144 -147 161 -200 11 -37 13 -29 23 128 12 166 12 169 53 253 23 47 50 99 62 116 12 16 20 31 18 32 -2 2 -71 11 -153 20 -83 9 -152 18 -154 21 -2 2 24 9 57 16 34 6 63 15 66 19 2 3 -19 15 -48 25 -89 31 -205 96 -237 132 -17 18 -47 66 -68 106 -48 94 -47 91 -28 84 33 -13 188 -28 222 -21 l35 6 -53 31 c-29 16 -55 33 -58 36 -3 3 -27 23 -53 45 -93 75 -158 186 -173 295 -8 60 5 66 32 16 21 -40 22 -40 48 -20 26 19 95 19 144 0 31 -13 44 -26 62 -65 60 -128 219 -229 387 -246 69 -7 66 -5 130 -117 18 -33 33 -69 33 -82 0 -12 -18 -74 -39 -136 l-39 -113 37 44 c20 25 46 56 59 70 21 22 23 23 17 4 -20 -73 -55 -266 -55 -303 l0 -44 23 20 c64 58 180 103 270 103 46 0 47 1 47 30 0 26 -4 30 -28 30 -16 0 -51 -7 -77 -15 -27 -8 -51 -13 -53 -10 -6 5 76 55 110 67 33 12 30 18 -15 34 l-32 12 30 7 c60 14 61 15 30 35 l-30 20 34 6 34 7 -22 19 -23 18 27 0 c28 0 28 0 10 20 -18 20 -18 31 -1 343 18 346 27 480 32 475 1 -2 13 -180 25 -396z m-1431 74 c0 -24 11 -81 24 -127 14 -46 23 -85 22 -86 -4 -5 -166 48 -166 54 0 3 15 26 33 52 52 71 52 71 15 60 -18 -5 -35 -9 -38 -9 -8 0 94 99 103 100 4 0 7 -20 7 -44z m2894 -25 c31 -32 26 -38 -19 -21 l-27 10 23 -37 c12 -21 31 -47 41 -59 10 -11 18 -23 18 -26 0 -3 -31 -16 -70 -27 -38 -12 -77 -24 -86 -28 -14 -5 -16 -2 -10 18 22 72 46 178 46 207 l0 33 28 -19 c15 -11 40 -34 56 -51z m-2193 44 c16 -9 27 -20 24 -25 -10 -16 14 -60 39 -71 19 -9 31 -8 56 5 23 11 37 13 51 5 10 -5 19 -12 19 -15 0 -17 -24 -46 -50 -59 -102 -53 -214 40 -184 153 7 26 7 26 45 7z m1437 -42 c2 -42 -1 -55 -23 -81 -51 -61 -130 -65 -185 -10 l-31 30 21 15 c17 12 27 13 46 4 55 -24 104 -1 104 49 0 18 7 31 23 38 34 17 42 9 45 -45z m-2622 -144 c-19 -40 -32 -77 -30 -81 3 -5 0 -8 -7 -8 -7 0 -10 -3 -6 -6 3 -3 42 24 87 60 74 61 90 72 90 63 0 -2 -42 -60 -94 -128 -52 -68 -93 -125 -91 -127 2 -3 18 1 36 7 18 6 34 10 35 8 2 -2 -19 -30 -46 -63 l-49 -59 37 -5 36 -5 -33 -27 -32 -28 28 -12 c28 -12 28 -13 -19 -16 -55 -4 -157 13 -173 29 -7 7 3 35 33 92 55 104 224 388 229 384 2 -2 -12 -37 -31 -78z m3826 -34 c2 3 5 -1 5 -7 0 -7 39 -80 86 -163 105 -185 107 -192 70 -206 -43 -16 -198 -25 -189 -11 4 7 14 12 22 12 21 0 17 10 -13 42 l-27 28 38 0 38 0 -51 59 c-28 32 -51 62 -51 66 0 7 31 2 65 -11 9 -4 -23 47 -72 112 -49 66 -93 126 -98 134 -10 17 -13 20 92 -63 40 -32 74 -57 77 -57 3 0 -11 34 -30 76 -43 95 -43 117 0 41 18 -31 35 -55 38 -52z m-2059 -2705 c3 0 4 7 1 15 -11 27 3 16 31 -26 19 -29 29 -38 35 -29 5 9 15 0 31 -29 13 -22 28 -41 33 -41 4 0 24 14 43 31 19 16 37 28 40 25 6 -6 -86 -116 -97 -116 -4 0 -20 12 -35 28 -37 36 -175 209 -175 219 0 4 19 -12 43 -35 23 -23 46 -42 50 -42z"
       id="path3342" />
    <path
       d="M3070 2789 c-76 -15 -162 -64 -223 -127 -31 -33 -59 -71 -62 -85 -9 -33 24 -162 66 -262 29 -70 36 -79 74 -96 23 -10 78 -25 121 -32 77 -13 78 -14 87 -47 8 -31 6 -37 -18 -57 -23 -21 -36 -23 -130 -23 -111 0 -182 20 -204 57 -8 15 -10 10 -11 -24 0 -24 -2 -43 -5 -43 -3 0 -23 8 -44 18 l-38 19 11 -29 c12 -32 46 -46 191 -77 255 -56 598 -43 820 30 51 16 63 25 78 56 l18 36 -25 -16 c-35 -23 -55 -22 -49 3 6 24 0 25 -30 5 -36 -23 -266 -42 -325 -26 -61 16 -72 27 -72 70 l0 37 87 25 c63 18 91 31 105 49 30 41 90 211 95 272 5 51 3 63 -21 98 -30 46 -106 109 -168 139 -81 39 -219 51 -328 30z"
       id="path3344" />
    <path
       d="M2940 6110 c-179 -19 -373 -57 -540 -107 -47 -14 -86 -26 -87 -27 -3 -2 75 -228 81 -233 2 -3 39 7 83 20 442 140 974 149 1433 26 63 -17 124 -32 134 -33 15 -1 25 18 52 99 19 54 31 102 26 106 -29 26 -324 101 -517 130 -148 23 -523 34 -665 19z"
       id="path3346" />
    <path
       d="M3100 5833 c-186 -10 -424 -53 -603 -108 -86 -26 -89 -27 -82 -53 11 -46 34 -92 44 -92 6 0 58 13 115 29 398 112 879 110 1271 -5 66 -20 126 -36 134 -37 19 -3 66 134 49 144 -6 4 -64 21 -127 38 -261 69 -545 99 -801 84z"
       id="path3348" />
    <path
       d="M5368 4911 c-66 -49 -75 -60 -64 -72 8 -8 46 -66 85 -129 192 -307 313 -640 368 -1005 22 -150 25 -562 5 -700 -87 -601 -332 -1094 -752 -1515 -118 -118 -332 -292 -430 -349 -14 -8 -63 -37 -110 -65 -47 -27 -130 -70 -185 -95 l-100 -46 32 -80 c39 -98 37 -98 198 -19 742 362 1286 1029 1484 1819 58 234 82 431 81 695 0 432 -95 843 -281 1213 -91 181 -230 408 -249 406 -3 0 -40 -26 -82 -58z"
       id="path3350" />
    <path
       d="M880 4872 c-390 -597 -538 -1304 -419 -2001 81 -477 282 -917 590 -1298 88 -108 295 -313 410 -405 145 -116 326 -230 507 -320 89 -45 164 -79 166 -77 7 7 56 122 54 124 -2 2 -50 26 -108 55 -389 192 -711 469 -967 830 -236 334 -382 704 -450 1140 -24 156 -24 556 0 713 61 398 194 753 398 1063 l67 102 -91 64 c-51 36 -97 68 -103 71 -5 3 -30 -24 -54 -61z"
       id="path3352" />
    <path
       d="M5183 4775 l-71 -54 64 -97 c479 -727 508 -1694 73 -2451 -118 -205 -226 -345 -403 -519 -188 -184 -410 -338 -647 -448 l-105 -49 35 -89 c20 -48 42 -88 48 -88 7 0 79 34 161 75 646 326 1109 892 1311 1600 62 220 86 407 86 680 0 315 -33 528 -124 803 -47 143 -137 352 -151 352 -4 0 -7 6 -7 14 0 18 -136 252 -171 293 l-27 32 -72 -54z"
       id="path3354" />
    <path
       d="M1096 4673 c-208 -322 -335 -661 -393 -1053 -24 -162 -24 -532 0 -690 88 -577 337 -1073 738 -1470 131 -130 262 -237 411 -334 89 -58 327 -186 345 -186 11 0 93 189 93 212 -1 7 -58 41 -128 75 -621 301 -1081 872 -1246 1544 -53 217 -60 286 -60 569 -1 290 9 372 74 617 53 200 173 476 266 615 19 28 34 52 34 55 0 3 9 16 20 30 11 14 20 29 20 33 0 8 -95 80 -105 80 -3 0 -34 -44 -69 -97z"
       id="path3356" />
  </g>
</svg>
